# xmcd CD database file
# Copyright (C) 1993-1998 Ti Kan
# 
# Track frame offsets:
#     150
#     18167
#     55265
#     93675
# 
# Disc length: 1545 seconds
# 
# Revision: 1
# Processed by: cddbd v1.4b41PL1 Copyright (c) Steve Scherf et al.
# Submitted via: DiscPlay 4.0.4
# 
DISCID=2a060704
DTITLE=David Morales - The Program
DYEAR=1900
DGENRE=
TTITLE0=The Program (Radio Mix)
TTITLE1=The Program (Morales Murder Mix)
TTITLE2=The Program (DEF Mix)
TTITLE3=The Program (Soul Assassins 7 Mix)
EXTD=
EXTT0=
EXTT1=
EXTT2=
EXTT3=
PLAYORDER=
